<svg xmlns="http://www.w3.org/2000/svg" width="64" height="64" viewBox="0 0 64 64">
<g>
<path d="M 34.56,0.39 L 39.33,1.04 L 40.47,1.26 L 42.61,1.86 L 45.50,2.99 L 47.09,3.78 L 50.16,5.84 L 51.66,6.94 L 54.45,9.54 L 55.80,10.90 L 58.21,13.94 L 61.25,18.84 L 61.82,19.94 L 62.64,21.83 L 63.00,22.76 L 63.48,24.57 L 63.68,25.51 L 63.89,27.63 L 64.00,31.56 L 64.00,33.14 L 63.73,36.15 L 63.55,37.64 L 62.93,40.47 L 62.57,41.86 L 61.59,44.50 L 61.05,45.80 L 59.71,48.25 L 59.00,49.46 L 57.30,51.73 L 56.40,52.85 L 54.34,54.94 L 53.27,55.96 L 50.85,57.87 L 46.82,60.53 L 46.14,60.92 L 44.97,61.59 L 44.40,61.90 L 43.40,62.41 L 42.41,62.88 L 40.61,63.44 L 39.69,63.68 L 37.53,63.88 L 36.94,63.91 L 35.58,63.94 L 33.20,63.95 L 31.90,63.94 L 29.49,63.80 L 28.31,63.71 L 26.12,63.42 L 23.99,63.08 L 20.32,61.90 L 19.49,61.58 L 17.78,60.73 L 16.93,60.27 L 15.20,59.17 L 13.48,58.01 L 10.19,55.15 L 8.60,53.66 L 5.86,50.41 L 5.23,49.59 L 4.14,47.94 L 2.81,45.50 L 2.40,44.60 L 1.73,42.55 L 1.42,41.50 L 0.96,39.22 L 0.55,36.90 L 0.37,31.93 L 0.38,29.45 L 1.04,24.70 L 1.25,23.56 L 1.84,21.44 L 2.96,18.59 L 3.73,17.02 L 5.83,13.93 L 6.95,12.41 L 9.59,9.57 L 10.96,8.20 L 13.95,5.82 L 18.59,2.99 L 19.49,2.56 L 21.51,1.86 L 22.56,1.53 L 24.83,1.04 L 27.13,0.61 L 32.09,0.39 M 28.02,41.76 L 27.03,41.92 L 25.28,42.30 L 24.77,42.59 L 24.00,43.24 L 24.00,43.67 L 24.12,44.36 L 24.32,44.49 L 24.80,44.63 L 25.10,44.44 L 26.11,44.18 L 27.28,44.05 L 28.05,44.00 L 29.70,43.92 L 30.64,43.90 L 32.58,43.88 L 33.60,43.90 L 36.44,43.88 L 38.00,43.79 L 38.61,43.72 L 39.71,43.56 L 40.09,43.46 L 40.71,43.25 L 40.83,43.13 L 40.94,42.89 L 40.80,42.77 L 40.39,42.53 L 39.97,42.41 L 39.00,42.18 L 38.30,42.09 L 36.75,41.90 L 35.75,41.83 L 30.71,41.66 M 16.94,42.00 L 15.32,42.07 L 14.46,42.19 L 14.16,42.27 L 13.65,42.47 L 13.54,42.59 L 13.41,42.85 L 13.50,43.00 L 13.76,43.27 L 14.01,43.39 L 14.58,43.62 L 14.95,43.71 L 16.61,44.00 L 17.56,44.00 L 19.99,43.71 L 20.55,43.51 L 20.73,43.39 L 21.00,43.14 L 21.00,43.00 L 20.68,42.61 L 20.18,42.38 L 19.81,42.29 L 18.06,42.00 M 45.25,42.30 L 44.55,42.49 L 44.34,42.61 L 44.00,42.86 L 44.00,43.00 L 44.08,43.30 L 44.22,43.42 L 44.57,43.64 L 44.82,43.72 L 46.01,43.96 L 46.76,43.96 L 48.32,43.88 L 49.07,43.72 L 50.51,43.32 L 51.00,43.00 L 51.47,42.55 L 51.42,42.32 L 51.20,42.25 L 50.64,42.11 L 50.15,42.07 L 49.03,42.02 L 48.25,42.02 M 45.07,21.11 L 44.80,21.39 L 44.69,21.66 L 44.47,22.28 L 44.38,22.73 L 44.23,23.70 L 44.17,24.32 L 44.07,25.64 L 44.04,26.43 L 44.00,28.10 L 44.00,29.07 L 44.01,31.65 L 44.03,33.05 L 44.05,33.61 L 44.10,34.64 L 44.14,35.03 L 44.24,35.73 L 44.31,35.98 L 44.67,36.73 L 44.98,36.84 L 45.71,36.90 L 46.25,36.82 L 47.45,36.47 L 47.99,36.02 L 48.17,35.60 L 48.47,34.62 L 48.57,33.84 L 48.73,32.09 L 48.80,30.83 L 49.28,27.00 L 49.85,25.09 L 50.25,24.47 L 51.14,23.44 L 51.70,23.26 L 52.89,23.13 L 53.60,23.40 L 54.40,23.97 L 54.74,24.60 L 54.83,25.10 L 54.95,26.26 L 54.93,27.10 L 54.86,28.98 L 54.76,30.26 L 54.21,35.18 L 53.98,36.55 L 53.87,37.08 L 53.64,38.01 L 53.54,38.25 L 53.20,39.30 L 53.32,39.59 L 53.77,40.00 L 54.30,40.00 L 55.13,39.66 L 55.73,39.12 L 56.04,38.72 L 57.32,36.83 L 57.91,35.59 L 59.02,32.99 L 59.39,31.67 L 60.00,29.07 L 60.00,28.01 L 59.51,25.11 L 59.19,24.19 L 58.99,23.80 L 58.57,23.08 L 58.35,22.83 L 56.27,21.54 L 54.49,21.07 L 53.55,21.05 L 51.69,21.13 L 50.88,21.38 L 49.39,22.03 L 48.95,22.56 L 48.22,23.36 L 47.87,23.63 L 47.72,23.63 L 47.43,23.54 L 47.28,23.36 L 46.97,22.92 L 46.78,22.56 L 46.12,21.56 L 45.73,21.16 L 45.55,21.08 L 45.22,21.01 M 10.90,20.91 L 8.74,21.18 L 7.80,21.57 L 6.89,22.00 L 6.51,22.27 L 5.81,22.87 L 5.56,23.22 L 4.19,26.31 L 3.88,28.57 L 4.02,29.74 L 4.49,32.09 L 5.00,33.23 L 6.22,35.46 L 7.10,36.47 L 8.66,38.16 L 9.27,38.72 L 10.40,39.64 L 10.80,39.81 L 11.50,39.95 L 11.70,39.73 L 12.00,39.10 L 12.00,38.50 L 12.14,37.58 L 12.47,37.18 L 12.84,37.05 L 13.74,36.84 L 14.50,36.77 L 15.31,36.71 L 15.80,36.69 L 16.86,36.64 L 17.50,36.62 L 20.50,36.50 L 20.79,28.75 L 20.86,26.64 L 20.88,25.43 L 20.87,24.92 L 20.82,23.13 L 20.74,22.55 L 20.52,21.58 L 20.35,21.34 L 19.94,21.00 L 19.65,21.00 L 18.44,21.51 L 17.73,22.27 L 17.54,22.75 L 17.14,23.69 L 16.93,24.00 L 16.82,24.00 L 16.60,23.90 L 16.45,23.69 L 16.12,23.17 L 15.88,22.75 L 15.09,21.88 L 14.35,21.44 L 13.91,21.29 L 11.97,20.86 M 32.04,17.00 L 28.36,17.43 L 26.47,18.14 L 25.81,18.70 L 24.67,19.95 L 24.40,20.78 L 24.05,22.57 L 24.18,23.66 L 24.55,25.20 L 25.02,26.01 L 25.44,26.38 L 26.42,27.08 L 27.16,27.45 L 28.83,28.22 L 30.00,28.68 L 32.47,29.77 L 33.74,30.45 L 34.18,30.78 L 34.96,31.42 L 35.18,31.73 L 35.50,32.36 L 35.50,32.67 L 34.93,34.19 L 34.05,34.74 L 33.42,34.77 L 32.07,34.69 L 31.29,34.40 L 29.69,33.67 L 28.86,33.05 L 26.52,31.72 L 25.85,31.48 L 25.59,31.45 L 25.11,31.43 L 24.98,31.51 L 24.13,32.46 L 23.98,33.22 L 24.10,33.62 L 24.47,34.41 L 24.83,34.78 L 25.67,35.50 L 26.25,35.78 L 28.36,36.57 L 29.56,36.76 L 32.02,37.00 L 33.24,36.93 L 35.61,36.65 L 36.61,36.33 L 38.44,35.56 L 39.00,35.00 L 40.17,33.53 L 40.69,32.54 L 40.82,32.04 L 41.00,31.05 L 40.97,30.56 L 40.82,29.60 L 40.62,29.15 L 40.16,28.25 L 39.81,27.83 L 39.04,27.02 L 38.54,26.66 L 37.48,25.98 L 36.85,25.68 L 35.50,25.14 L 34.73,24.94 L 31.30,23.85 L 29.73,23.14 L 29.28,22.77 L 28.60,22.03 L 28.58,21.63 L 28.74,20.82 L 29.11,20.37 L 30.55,19.31 L 31.69,19.02 L 32.31,19.08 L 33.57,19.34 L 34.21,19.68 L 35.47,20.47 L 36.07,21.07 L 37.17,22.06 L 37.77,22.44 L 38.03,22.50 L 38.55,22.53 L 38.81,22.42 L 39.35,22.12 L 39.67,21.86 L 40.30,21.05 L 40.43,20.49 L 40.36,20.22 L 40.13,19.67 L 39.90,19.40 L 39.36,18.88 L 38.98,18.64 L 37.23,17.76 L 36.04,17.46 L 33.50,17.00 M 12.22,23.18 L 13.34,23.57 L 13.99,24.04 L 14.27,24.35 L 15.22,25.80 L 15.46,26.72 L 15.76,28.65 L 15.63,29.65 L 15.17,31.62 L 14.61,32.47 L 14.01,33.33 L 13.71,33.65 L 13.11,34.24 L 12.82,34.43 L 12.24,34.75 L 11.96,34.81 L 11.41,34.86 L 11.15,34.79 L 10.15,34.24 L 9.73,33.58 L 8.94,31.99 L 8.65,30.82 L 8.41,27.86 L 8.71,26.06 L 9.05,25.33 L 9.84,24.02 L 10.38,23.64 L 11.54,23.08 Z" fill="rgba(3,2,2,1)"/>
<path d="M 24.00,43.67 L 24.00,43.24 L 24.77,42.59 L 25.28,42.30 L 27.03,41.92 L 28.02,41.76 L 30.71,41.66 L 35.75,41.83 L 36.75,41.90 L 38.30,42.09 L 39.00,42.18 L 39.97,42.41 L 40.39,42.53 L 40.80,42.77 L 40.94,42.89 L 40.83,43.13 L 40.71,43.25 L 40.09,43.46 L 39.71,43.56 L 38.61,43.72 L 38.00,43.79 L 36.44,43.88 L 33.60,43.90 L 32.58,43.88 L 30.64,43.90 L 29.70,43.92 L 28.05,44.00 L 27.28,44.05 L 26.11,44.18 L 25.10,44.44 L 24.80,44.63 L 24.32,44.49 L 24.12,44.36 M 13.50,43.00 L 13.41,42.85 L 13.54,42.59 L 13.65,42.47 L 14.16,42.27 L 14.46,42.19 L 15.32,42.07 L 16.94,42.00 L 18.06,42.00 L 19.81,42.29 L 20.18,42.38 L 20.68,42.61 L 21.00,43.00 L 21.00,43.14 L 20.73,43.39 L 20.55,43.51 L 19.99,43.71 L 17.56,44.00 L 16.61,44.00 L 14.95,43.71 L 14.58,43.62 L 14.01,43.39 L 13.76,43.27 M 44.00,43.00 L 44.00,42.86 L 44.34,42.61 L 44.55,42.49 L 45.25,42.30 L 48.25,42.02 L 49.03,42.02 L 50.15,42.07 L 50.64,42.11 L 51.20,42.25 L 51.42,42.32 L 51.47,42.55 L 51.00,43.00 L 50.51,43.32 L 49.07,43.72 L 48.32,43.88 L 46.76,43.96 L 46.01,43.96 L 44.82,43.72 L 44.57,43.64 L 44.22,43.42 L 44.08,43.30 M 7.10,36.47 L 6.22,35.46 L 5.00,33.23 L 4.49,32.09 L 4.02,29.74 L 3.88,28.57 L 4.19,26.31 L 5.56,23.22 L 5.81,22.87 L 6.51,22.27 L 6.89,22.00 L 7.80,21.57 L 8.74,21.18 L 10.90,20.91 L 11.97,20.86 L 13.91,21.29 L 14.35,21.44 L 15.09,21.88 L 15.88,22.75 L 16.12,23.17 L 16.45,23.69 L 16.60,23.90 L 16.82,24.00 L 16.93,24.00 L 17.14,23.69 L 17.54,22.75 L 17.73,22.27 L 18.44,21.51 L 19.65,21.00 L 19.94,21.00 L 20.35,21.34 L 20.52,21.58 L 20.74,22.55 L 20.82,23.13 L 20.87,24.92 L 20.88,25.43 L 20.86,26.64 L 20.79,28.75 L 20.50,36.50 L 17.50,36.62 L 16.86,36.64 L 15.80,36.69 L 15.31,36.71 L 14.50,36.77 L 13.74,36.84 L 12.84,37.05 L 12.47,37.18 L 12.14,37.58 L 12.00,38.50 L 12.00,39.10 L 11.70,39.73 L 11.50,39.95 L 10.80,39.81 L 10.40,39.64 L 9.27,38.72 L 8.66,38.16 M 14.61,32.47 L 15.17,31.62 L 15.63,29.65 L 15.76,28.65 L 15.46,26.72 L 15.22,25.80 L 14.27,24.35 L 13.99,24.04 L 13.34,23.57 L 12.22,23.18 L 11.54,23.08 L 10.38,23.64 L 9.84,24.02 L 9.05,25.33 L 8.71,26.06 L 8.41,27.86 L 8.65,30.82 L 8.94,31.99 L 9.73,33.58 L 10.15,34.24 L 11.15,34.79 L 11.41,34.86 L 11.96,34.81 L 12.24,34.75 L 12.82,34.43 L 13.11,34.24 L 13.71,33.65 L 14.01,33.33 M 53.54,38.25 L 53.64,38.01 L 53.87,37.08 L 53.98,36.55 L 54.21,35.18 L 54.76,30.26 L 54.86,28.98 L 54.93,27.10 L 54.95,26.26 L 54.83,25.10 L 54.74,24.60 L 54.40,23.97 L 53.60,23.40 L 52.89,23.13 L 51.70,23.26 L 51.14,23.44 L 50.25,24.47 L 49.85,25.09 L 49.28,27.00 L 48.80,30.83 L 48.73,32.09 L 48.57,33.84 L 48.47,34.62 L 48.17,35.60 L 47.99,36.02 L 47.45,36.47 L 46.25,36.82 L 45.71,36.90 L 44.98,36.84 L 44.67,36.73 L 44.31,35.98 L 44.24,35.73 L 44.14,35.03 L 44.10,34.64 L 44.05,33.61 L 44.03,33.05 L 44.01,31.65 L 44.00,29.07 L 44.00,28.10 L 44.04,26.43 L 44.07,25.64 L 44.17,24.32 L 44.23,23.70 L 44.38,22.73 L 44.47,22.28 L 44.69,21.66 L 44.80,21.39 L 45.07,21.11 L 45.22,21.01 L 45.55,21.08 L 45.73,21.16 L 46.12,21.56 L 46.78,22.56 L 46.97,22.92 L 47.28,23.36 L 47.43,23.54 L 47.72,23.63 L 47.87,23.63 L 48.22,23.36 L 48.95,22.56 L 49.39,22.03 L 50.88,21.38 L 51.69,21.13 L 53.55,21.05 L 54.49,21.07 L 56.27,21.54 L 58.35,22.83 L 58.57,23.08 L 58.99,23.80 L 59.19,24.19 L 59.51,25.11 L 60.00,28.01 L 60.00,29.07 L 59.39,31.67 L 59.02,32.99 L 57.91,35.59 L 57.32,36.83 L 56.04,38.72 L 55.73,39.12 L 55.13,39.66 L 54.30,40.00 L 53.77,40.00 L 53.32,39.59 L 53.20,39.30 M 26.25,35.78 L 25.67,35.50 L 24.83,34.78 L 24.47,34.41 L 24.10,33.62 L 23.98,33.22 L 24.13,32.46 L 24.98,31.51 L 25.11,31.43 L 25.59,31.45 L 25.85,31.48 L 26.52,31.72 L 28.86,33.05 L 29.69,33.67 L 31.29,34.40 L 32.07,34.69 L 33.42,34.77 L 34.05,34.74 L 34.93,34.19 L 35.50,32.67 L 35.50,32.36 L 35.18,31.73 L 34.96,31.42 L 34.18,30.78 L 33.74,30.45 L 32.47,29.77 L 30.00,28.68 L 28.83,28.22 L 27.16,27.45 L 26.42,27.08 L 25.44,26.38 L 25.02,26.01 L 24.55,25.20 L 24.18,23.66 L 24.05,22.57 L 24.40,20.78 L 24.67,19.95 L 25.81,18.70 L 26.47,18.14 L 28.36,17.43 L 32.04,17.00 L 33.50,17.00 L 36.04,17.46 L 37.23,17.76 L 38.98,18.64 L 39.36,18.88 L 39.90,19.40 L 40.13,19.67 L 40.36,20.22 L 40.43,20.49 L 40.30,21.05 L 39.67,21.86 L 39.35,22.12 L 38.81,22.42 L 38.55,22.53 L 38.03,22.50 L 37.77,22.44 L 37.17,22.06 L 36.07,21.07 L 35.47,20.47 L 34.21,19.68 L 33.57,19.34 L 32.31,19.08 L 31.69,19.02 L 30.55,19.31 L 29.11,20.37 L 28.74,20.82 L 28.58,21.63 L 28.60,22.03 L 29.28,22.77 L 29.73,23.14 L 31.30,23.85 L 34.73,24.94 L 35.50,25.14 L 36.85,25.68 L 37.48,25.98 L 38.54,26.66 L 39.04,27.02 L 39.81,27.83 L 40.16,28.25 L 40.62,29.15 L 40.82,29.60 L 40.97,30.56 L 41.00,31.05 L 40.82,32.04 L 40.69,32.54 L 40.17,33.53 L 39.00,35.00 L 38.44,35.56 L 36.61,36.33 L 35.61,36.65 L 33.24,36.93 L 32.02,37.00 L 29.56,36.76 L 28.36,36.57 Z" fill="rgba(254,254,254,1)"/>
</g>
</svg>